<svg width="450" height="322" viewBox="0 0 450 322" fill="none" xmlns="http://www.w3.org/2000/svg">
<path d="M103.62 165.175C92.9 144.455 76.825 134.005 55.39 133.835H0V319.57H53.76C65.63 319.57 75.66 316.51 83.845 310.4C92.1 304.71 98.54 297.49 103.175 288.745C104.91 285.43 106.395 282.25 107.625 279.19C108.785 276.05 109.655 272.48 110.23 268.49C111.46 260.595 112.08 246.665 112.08 226.705C112.08 207.94 111.685 194.73 110.89 187.085C109.875 179.445 107.45 172.14 103.62 165.175ZM87.13 261.685C86.405 267.815 84.705 272.875 82.02 276.875C75.93 287.685 66.145 293.085 52.665 293.085H23.965V160.325H52.665C64.84 159.985 74.26 165.22 80.93 176.025C84.195 180.365 86.26 186.025 87.125 193.005C87.78 199.985 88.105 211.56 88.105 227.73C88.11 244.325 87.785 255.64 87.13 261.685Z" fill="#231F20"/>
<path d="M192.154 213.62C184.624 212.515 178.689 211.535 174.344 210.685C166.519 208.985 160.839 205.925 157.294 201.505C153.744 197.17 151.969 192.325 151.969 186.97C152.114 178.045 154.759 171.33 159.899 166.82C164.829 162.485 170.984 160.32 178.369 160.32C192.639 160.66 205.714 165.425 217.589 174.615L230.954 151.495C216.419 139.215 199.314 132.82 179.639 132.31C163.299 132.485 150.674 137.495 141.779 147.355C132.594 157.3 127.999 170.395 127.999 186.625C127.999 200.14 131.654 211.615 138.969 221.05C146.064 230.23 156.419 236.14 170.029 238.77C177.629 240.045 184.619 241.195 190.994 242.215C204.899 245.02 211.779 253.35 211.629 267.205C211.334 284.12 200.904 292.75 180.329 293.09C162.939 292.92 147.944 286.75 135.339 274.58L119.609 295.75C136.464 312.655 156.609 321.105 180.044 321.105C216.284 320.595 234.804 302.575 235.599 267.045C235.599 253.87 232.089 242.31 225.064 232.365C217.969 222.245 206.999 216 192.154 213.62Z" fill="#231F20"/>
<path d="M304.999 293.09C299.344 293.09 294.479 291.69 290.419 288.88C286.284 286.5 282.944 283.39 280.409 279.56C277.289 275.56 275.219 270.325 274.209 263.855C273.044 257.385 272.464 245.005 272.464 226.705C272.464 208.41 273.044 195.94 274.204 189.3C275.219 183 277.289 177.855 280.404 173.85C282.939 170.02 286.274 166.83 290.409 164.275C294.469 161.805 299.324 160.49 304.984 160.32C312.669 160.49 319.194 163.085 324.559 168.105C329.704 173.38 333.264 179.765 335.219 187.255H360.669C358.134 171.735 352.054 158.72 342.424 148.205C332.799 137.775 320.344 132.48 305.069 132.305C292.619 132.48 282.234 135.96 273.909 142.75C265.439 149.46 259.284 157.105 255.449 165.68C253.059 170.185 251.289 176.085 250.129 183.385C249.044 190.69 248.504 205.13 248.504 226.7C248.504 247.935 249.044 262.285 250.129 269.76C250.704 273.75 251.434 277.065 252.299 279.695C253.239 282.245 254.289 284.92 255.449 287.72C259.279 296.3 265.434 303.855 273.899 310.395C282.219 317.19 292.604 320.755 305.044 321.095C318.804 321.095 330.719 316.52 340.784 307.36C350.559 298.115 357.189 284.89 360.664 267.675H335.244C328.574 284.62 318.489 293.09 304.999 293.09Z" fill="#231F20"/>
<path d="M449.395 137.615L428.94 128.065L443.01 84.79L401.09 93.685L391.54 71.225L366.735 97.85L379.7 30.995L349.445 48.48L324.76 0L300.075 48.48L269.82 30.995L278.85 77.57L297.17 95.72L290.155 59.535L295.79 62.795L296.48 63.17C299.14 64.505 302.17 64.72 304.99 63.78C307.815 62.84 310.105 60.855 311.41 58.24L324.755 32.035L338.075 58.195L338.425 58.84C339.93 61.41 342.345 63.24 345.225 63.99C348.115 64.75 351.115 64.325 353.635 62.845L359.355 59.54L350.21 106.695C349.485 110.45 350.71 114.265 353.49 116.895C357.945 121.115 365.015 120.93 369.285 116.425L386.91 97.51L388.81 101.98C390.89 106.84 396.175 109.575 401.355 108.495L421.4 104.24L414.195 126.4C412.45 131.73 414.955 137.55 420.055 139.965L422.18 140.955L375.035 179.135C371.325 182.145 369.95 187.175 371.585 191.61L374.98 200.97H374.925L374.935 200.995H334.985V253.96H348.715V215.495H395.705L386.06 188.895L449.395 137.615Z" fill="#DA2034"/>
<path d="M246.744 94.0654L210.109 85.8954L216.634 126.585C222.269 129.05 227.674 132.03 232.799 135.625L227.849 104.735L246.484 108.89C251.649 109.96 256.919 107.23 259.014 102.35L261.094 97.4654L285.364 121.51C290.889 119.845 296.824 118.89 303.139 118.665L256.099 72.0654L246.744 94.0654Z" fill="#DA2034"/>
</svg>
