<svg width="500" height="500" viewBox="0 0 500 500" fill="none" xmlns="http://www.w3.org/2000/svg">
<path d="M131.921 236.37C121.201 215.65 105.126 205.2 83.6908 205.03H28.3008V390.765H82.0608C93.9308 390.765 103.961 387.705 112.146 381.595C120.401 375.905 126.841 368.685 131.476 359.94C133.211 356.625 134.696 353.445 135.926 350.385C137.086 347.245 137.956 343.675 138.531 339.685C139.761 331.79 140.381 317.86 140.381 297.9C140.381 279.135 139.986 265.925 139.191 258.28C138.176 250.64 135.751 243.335 131.921 236.37ZM115.431 332.88C114.706 339.01 113.006 344.07 110.321 348.07C104.231 358.88 94.4458 364.28 80.9658 364.28H52.2658V231.52H80.9658C93.1408 231.18 102.561 236.415 109.231 247.22C112.496 251.56 114.561 257.22 115.426 264.2C116.081 271.18 116.406 282.755 116.406 298.925C116.411 315.52 116.086 326.835 115.431 332.88Z" fill="#231F20"/>
<path d="M220.455 284.815C212.925 283.71 206.99 282.73 202.645 281.88C194.82 280.18 189.14 277.12 185.595 272.7C182.045 268.365 180.27 263.52 180.27 258.165C180.415 249.24 183.06 242.525 188.2 238.015C193.13 233.68 199.285 231.515 206.67 231.515C220.94 231.855 234.015 236.62 245.89 245.81L259.255 222.69C244.72 210.41 227.615 204.015 207.94 203.505C191.6 203.68 178.975 208.69 170.08 218.55C160.895 228.495 156.3 241.59 156.3 257.82C156.3 271.335 159.955 282.81 167.27 292.245C174.365 301.425 184.72 307.335 198.33 309.965C205.93 311.24 212.92 312.39 219.295 313.41C233.2 316.215 240.08 324.545 239.93 338.4C239.635 355.315 229.205 363.945 208.63 364.285C191.24 364.115 176.245 357.945 163.64 345.775L147.91 366.945C164.765 383.85 184.91 392.3 208.345 392.3C244.585 391.79 263.105 373.77 263.9 338.24C263.9 325.065 260.39 313.505 253.365 303.56C246.27 293.44 235.3 287.195 220.455 284.815Z" fill="#231F20"/>
<path d="M333.3 364.285C327.645 364.285 322.78 362.885 318.72 360.075C314.585 357.695 311.245 354.585 308.71 350.755C305.59 346.755 303.52 341.52 302.51 335.05C301.345 328.58 300.765 316.2 300.765 297.9C300.765 279.605 301.345 267.135 302.505 260.495C303.52 254.195 305.59 249.05 308.705 245.045C311.24 241.215 314.575 238.025 318.71 235.47C322.77 233 327.625 231.685 333.285 231.515C340.97 231.685 347.495 234.28 352.86 239.3C358.005 244.575 361.565 250.96 363.52 258.45H388.97C386.435 242.93 380.355 229.915 370.725 219.4C361.1 208.97 348.645 203.675 333.37 203.5C320.92 203.675 310.535 207.155 302.21 213.945C293.74 220.655 287.585 228.3 283.75 236.875C281.36 241.38 279.59 247.28 278.43 254.58C277.345 261.885 276.805 276.325 276.805 297.895C276.805 319.13 277.345 333.48 278.43 340.955C279.005 344.945 279.735 348.26 280.6 350.89C281.54 353.44 282.59 356.115 283.75 358.915C287.58 367.495 293.735 375.05 302.2 381.59C310.52 388.385 320.905 391.95 333.345 392.29C347.105 392.29 359.02 387.715 369.085 378.555C378.86 369.31 385.49 356.085 388.965 338.87H363.545C356.875 355.815 346.79 364.285 333.3 364.285Z" fill="#231F20"/>
<path d="M477.696 208.81L457.241 199.26L471.311 155.985L429.391 164.88L419.841 142.42L395.036 169.045L408.001 102.19L377.746 119.675L353.061 71.1953L328.376 119.675L298.121 102.19L307.151 148.765L325.471 166.915L318.456 130.73L324.091 133.99L324.781 134.365C327.441 135.7 330.471 135.915 333.291 134.975C336.116 134.035 338.406 132.05 339.711 129.435L353.056 103.23L366.376 129.39L366.726 130.035C368.231 132.605 370.646 134.435 373.526 135.185C376.416 135.945 379.416 135.52 381.936 134.04L387.656 130.735L378.511 177.89C377.786 181.645 379.011 185.46 381.791 188.09C386.246 192.31 393.316 192.125 397.586 187.62L415.211 168.705L417.111 173.175C419.191 178.035 424.476 180.77 429.656 179.69L449.701 175.435L442.496 197.595C440.751 202.925 443.256 208.745 448.356 211.16L450.481 212.15L403.336 250.33C399.626 253.34 398.251 258.37 399.886 262.805L403.281 272.165H403.226L403.236 272.19H363.286V325.155H377.016V286.69H424.006L414.361 260.09L477.696 208.81Z" fill="#DA2034"/>
<path d="M275.045 165.261L238.41 157.091L244.935 197.781C250.57 200.246 255.975 203.226 261.1 206.821L256.15 175.931L274.785 180.086C279.95 181.156 285.22 178.426 287.315 173.546L289.395 168.661L313.665 192.706C319.19 191.041 325.125 190.086 331.44 189.861L284.4 143.261L275.045 165.261Z" fill="#DA2034"/>
</svg>
