<svg width="500" height="500" viewBox="0 0 500 500" fill="none" xmlns="http://www.w3.org/2000/svg">
<rect width="500" height="500" rx="50" fill="white"/>
<path d="M140.929 254.162C131.272 235.506 116.791 226.097 97.4817 225.944H47.5844V393.177H96.0133C106.706 393.177 115.742 390.422 123.115 384.92C130.551 379.797 136.353 373.296 140.528 365.423C142.091 362.438 143.429 359.575 144.537 356.819C145.582 353.992 146.366 350.778 146.884 347.185C147.992 340.077 148.55 327.534 148.55 309.563C148.55 292.667 148.194 280.773 147.478 273.889C146.564 267.011 144.379 260.433 140.929 254.162ZM126.074 341.058C125.421 346.578 123.89 351.133 121.471 354.735C115.985 364.468 107.17 369.33 95.0269 369.33H69.1729V249.795H95.0269C105.995 249.489 114.48 254.203 120.489 263.931C123.43 267.839 125.29 272.935 126.07 279.22C126.66 285.504 126.953 295.926 126.953 310.486C126.957 325.427 126.664 335.615 126.074 341.058Z" fill="#231F20"/>
<path d="M220.685 297.781C213.901 296.786 208.555 295.904 204.641 295.139C197.592 293.608 192.475 290.853 189.281 286.873C186.083 282.97 184.484 278.608 184.484 273.786C184.615 265.75 186.998 259.704 191.628 255.643C196.069 251.74 201.614 249.791 208.267 249.791C221.121 250.097 232.9 254.387 243.597 262.662L255.637 241.845C242.543 230.788 227.135 225.03 209.411 224.571C194.691 224.728 183.318 229.239 175.305 238.117C167.031 247.072 162.891 258.862 162.891 273.475C162.891 285.644 166.184 295.976 172.774 304.471C179.165 312.737 188.493 318.058 200.754 320.426C207.6 321.574 213.897 322.609 219.64 323.528C232.166 326.053 238.363 333.553 238.228 346.028C237.963 361.258 228.567 369.029 210.032 369.335C194.367 369.182 180.859 363.626 169.504 352.669L155.333 371.73C170.517 386.951 188.664 394.559 209.775 394.559C242.422 394.1 259.105 377.875 259.821 345.884C259.821 334.022 256.659 323.613 250.331 314.659C243.94 305.547 234.057 299.924 220.685 297.781Z" fill="#231F20"/>
<path d="M322.339 369.335C317.245 369.335 312.863 368.074 309.205 365.544C305.48 363.401 302.471 360.601 300.188 357.153C297.377 353.551 295.512 348.837 294.603 343.012C293.553 337.187 293.031 326.04 293.031 309.563C293.031 293.09 293.553 281.862 294.598 275.884C295.512 270.211 297.377 265.579 300.183 261.973C302.467 258.524 305.471 255.652 309.196 253.352C312.854 251.128 317.227 249.944 322.326 249.791C329.249 249.944 335.127 252.28 339.96 256.8C344.595 261.55 347.802 267.299 349.563 274.043H372.489C370.205 260.069 364.728 248.35 356.053 238.883C347.383 229.491 336.163 224.724 322.402 224.566C311.187 224.724 301.832 227.857 294.332 233.971C286.702 240.012 281.158 246.896 277.703 254.617C275.55 258.673 273.955 263.985 272.91 270.558C271.933 277.135 271.447 290.137 271.447 309.558C271.447 328.678 271.933 341.598 272.91 348.329C273.428 351.921 274.086 354.906 274.865 357.274C275.712 359.57 276.658 361.979 277.703 364.5C281.153 372.225 286.698 379.027 294.323 384.916C301.818 391.034 311.174 394.244 322.38 394.55C334.775 394.55 345.509 390.431 354.576 382.183C363.381 373.859 369.354 361.952 372.484 346.451H349.585C343.577 361.709 334.492 369.335 322.339 369.335Z" fill="#231F20"/>
<path d="M452.416 229.347L433.989 220.749L446.664 181.785L408.901 189.794L400.298 169.571L377.952 193.544L389.632 133.348L362.377 149.092L340.14 105.441L317.903 149.092L290.648 133.348L298.782 175.284L315.286 191.626L308.966 159.045L314.043 161.981L314.664 162.318C317.06 163.52 319.79 163.714 322.33 162.868C324.875 162.021 326.938 160.234 328.114 157.879L340.135 134.285L352.135 157.839L352.45 158.42C353.806 160.734 355.981 162.381 358.576 163.057C361.179 163.741 363.881 163.358 366.152 162.026L371.304 159.05L363.066 201.508C362.413 204.888 363.517 208.323 366.021 210.691C370.034 214.491 376.403 214.325 380.25 210.268L396.127 193.238L397.838 197.262C399.712 201.638 404.473 204.101 409.139 203.128L427.197 199.297L420.706 219.25C419.134 224.049 421.391 229.289 425.985 231.463L427.899 232.355L385.429 266.731C382.087 269.442 380.849 273.971 382.322 277.964L385.38 286.391H385.33L385.339 286.414H349.351V334.103H361.719V299.469H404.05L395.361 275.519L452.416 229.347Z" fill="#DA2034"/>
<path d="M269.861 190.136L236.859 182.78L242.737 219.416C247.813 221.636 252.682 224.319 257.299 227.556L252.84 199.743L269.627 203.484C274.28 204.447 279.027 201.989 280.914 197.595L282.788 193.197L304.651 214.847C309.629 213.348 314.975 212.488 320.664 212.285L278.288 170.327L269.861 190.136Z" fill="#DA2034"/>
</svg>
